<?xml version="1.0" encoding="UTF-8" standalone="no"?>
<!DOCTYPE svg PUBLIC "-//W3C//DTD SVG 1.1//EN" "http://www.w3.org/Graphics/SVG/1.1/DTD/svg11.dtd">
<svg width="100%" height="100%" viewBox="0 0 588 588" version="1.1" xmlns="http://www.w3.org/2000/svg" xmlns:xlink="http://www.w3.org/1999/xlink" xml:space="preserve" xmlns:serif="http://www.serif.com/" style="fill-rule:evenodd;clip-rule:evenodd;stroke-linejoin:round;stroke-miterlimit:2;">
    <g>
        <path d="M86.451,501.46C113.388,528.396 144.766,549.548 179.716,564.331C215.923,579.645 254.358,587.409 293.955,587.409C333.551,587.409 371.987,579.645 408.194,564.331C443.143,549.548 474.522,528.395 501.46,501.46C528.396,474.522 549.55,443.144 564.331,408.194C579.645,371.987 587.411,333.551 587.411,293.956C587.411,254.358 579.645,215.923 564.331,179.717C549.55,144.767 528.395,113.389 501.46,86.452C474.522,59.515 443.144,38.362 408.194,23.58C371.986,8.265 333.551,0.501 293.955,0.501C254.358,0.501 215.923,8.266 179.716,23.58C144.766,38.362 113.388,59.516 86.451,86.452C59.514,113.388 38.361,144.767 23.578,179.716C8.265,215.923 0.5,254.358 0.5,293.956C0.5,333.552 8.265,371.987 23.579,408.194C38.361,443.144 59.515,474.522 86.451,501.46ZM293.955,43.341C432.366,43.341 544.569,155.545 544.569,293.956C544.569,432.366 432.366,544.569 293.955,544.569C155.544,544.569 43.34,432.366 43.34,293.956C43.34,155.545 155.544,43.341 293.955,43.341Z" style="fill:rgb(165,220,134);fill-rule:nonzero;"/>
        <path d="M228.992,400.794C233.009,404.812 238.457,407.067 244.138,407.067C249.82,407.067 255.267,404.811 259.284,400.794L442.67,217.409C451.035,209.044 451.035,195.482 442.67,187.117C434.305,178.752 420.742,178.751 412.377,187.117L244.138,355.357L175.532,286.75C167.167,278.384 153.605,278.384 145.24,286.75C136.875,295.115 136.875,308.677 145.24,317.042L228.992,400.794Z" style="fill:rgb(165,220,134);fill-rule:nonzero;"/>
    </g>
</svg>
