<?xml version="1.0" encoding="UTF-8" standalone="no"?>
<!DOCTYPE svg PUBLIC "-//W3C//DTD SVG 1.1//EN" "http://www.w3.org/Graphics/SVG/1.1/DTD/svg11.dtd">
<svg width="100%" height="100%" viewBox="0 0 70 40" version="1.1" xmlns="http://www.w3.org/2000/svg" xmlns:xlink="http://www.w3.org/1999/xlink" xml:space="preserve" xmlns:serif="http://www.serif.com/" style="fill-rule:evenodd;clip-rule:evenodd;stroke-linejoin:round;stroke-miterlimit:2;">
    <g transform="matrix(1,0,0,1,-953.749,-494.089)">
        <g transform="matrix(0.265047,0,0,0.265047,919.835,461.028)">
            <g transform="matrix(-0.494524,0,-0.155335,0.42678,431.139,95.3446)">
                <path d="M147,128.31C147,101.707 134.409,84 115.491,84C95.739,84 53.779,84 53.779,84C53.779,84 53.779,300.659 53.779,386.537C53.779,413.076 60.916,421 78.286,421L147,421L147,128.31Z" style="fill:rgb(166,166,166);"/>
            </g>
            <g transform="matrix(-0.494524,0,-0.120275,0.330454,322.789,135.898)">
                <path d="M167.221,118.463C167.221,97.772 157.428,84 142.714,84L74,84L74,386.537C74,407.228 83.793,421 98.507,421L167.221,421L167.221,118.463Z" style="fill:rgb(166,166,166);"/>
            </g>
            <g transform="matrix(1.3742,0,0,1.3742,-823.597,-839.875)">
                <path d="M693.46,713.622L727.007,713.622L754.75,789.847C755.474,791.46 756.118,793.105 756.708,794.772L756.711,794.782C760.906,803.304 766.49,810.699 773.296,804.121C773.296,804.121 773.296,804.121 773.296,804.121C771.708,808.425 767.648,811.259 763.096,811.303L762.988,811.304L737.832,811.304C736.652,811.298 735.48,811.138 734.346,810.809C731.661,810.031 729.276,808.346 727.635,806.084C726.938,805.122 726.385,804.067 725.974,802.954L693.46,713.622Z" style="fill:white;"/>
                <clipPath id="_clip1">
                    <path d="M693.46,713.622L727.007,713.622L754.75,789.847C755.474,791.46 756.118,793.105 756.708,794.772L756.711,794.782C760.906,803.304 766.49,810.699 773.296,804.121C773.296,804.121 773.296,804.121 773.296,804.121C771.708,808.425 767.648,811.259 763.096,811.303L762.988,811.304L737.832,811.304C736.652,811.298 735.48,811.138 734.346,810.809C731.661,810.031 729.276,808.346 727.635,806.084C726.938,805.122 726.385,804.067 725.974,802.954L693.46,713.622Z"/>
                </clipPath>
                <g clip-path="url(#_clip1)">
                    <g transform="matrix(0.372217,-0.135261,0.122489,0.337071,45.1835,566.877)">
                        <path d="M1445.81,1462.73C1447.19,1462.73 1448.31,1463.85 1448.31,1465.23C1448.31,1466.61 1447.19,1467.73 1445.81,1467.73L1392.87,1467.73C1391.49,1467.73 1390.37,1466.61 1390.37,1465.23C1390.37,1463.85 1391.49,1462.73 1392.87,1462.73L1445.81,1462.73ZM1465.04,1433.09C1466.42,1433.09 1467.54,1434.21 1467.54,1435.59C1467.54,1436.97 1466.42,1438.09 1465.04,1438.09L1412.1,1438.09C1410.72,1438.09 1409.6,1436.97 1409.6,1435.59C1409.6,1434.21 1410.72,1433.09 1412.1,1433.09L1465.04,1433.09ZM1445.81,1403.44C1447.19,1403.44 1448.31,1404.56 1448.31,1405.94C1448.31,1407.32 1447.19,1408.44 1445.81,1408.44L1392.87,1408.44C1391.49,1408.44 1390.37,1407.32 1390.37,1405.94C1390.37,1404.56 1391.49,1403.44 1392.87,1403.44L1445.81,1403.44ZM1465.04,1373.8C1466.42,1373.8 1467.54,1374.92 1467.54,1376.3C1467.54,1377.68 1466.42,1378.8 1465.04,1378.8L1412.1,1378.8C1410.72,1378.8 1409.6,1377.68 1409.6,1376.3C1409.6,1374.92 1410.72,1373.8 1412.1,1373.8L1465.04,1373.8ZM1445.81,1344.15C1447.19,1344.15 1448.31,1345.27 1448.31,1346.65C1448.31,1348.03 1447.19,1349.15 1445.81,1349.15L1392.87,1349.15C1391.49,1349.15 1390.37,1348.03 1390.37,1346.65C1390.37,1345.27 1391.49,1344.15 1392.87,1344.15L1445.81,1344.15ZM1465.04,1314.51C1466.42,1314.51 1467.54,1315.63 1467.54,1317.01C1467.54,1318.39 1466.42,1319.51 1465.04,1319.51L1412.1,1319.51C1410.72,1319.51 1409.6,1318.39 1409.6,1317.01C1409.6,1315.63 1410.72,1314.51 1412.1,1314.51L1465.04,1314.51ZM1445.81,1284.86C1447.19,1284.86 1448.31,1285.98 1448.31,1287.36L1448.31,1287.39L1448.31,1287.42C1448.31,1288.8 1447.19,1289.92 1445.81,1289.92L1392.87,1289.92C1391.49,1289.92 1390.37,1288.8 1390.37,1287.42L1390.37,1287.39L1390.37,1287.36C1390.37,1285.98 1391.49,1284.86 1392.87,1284.86L1445.81,1284.86ZM1465.04,1255.22C1466.42,1255.22 1467.54,1256.34 1467.54,1257.72L1467.54,1257.75L1467.54,1257.78C1467.54,1259.16 1466.42,1260.28 1465.04,1260.28L1412.1,1260.28C1410.72,1260.28 1409.6,1259.16 1409.6,1257.78L1409.6,1257.75L1409.6,1257.72C1409.6,1256.34 1410.72,1255.22 1412.1,1255.22L1465.04,1255.22ZM1445.81,1225.63C1447.19,1225.63 1448.31,1226.75 1448.31,1228.13C1448.31,1229.51 1447.19,1230.63 1445.81,1230.63L1392.87,1230.63C1391.49,1230.63 1390.37,1229.51 1390.37,1228.13C1390.37,1226.75 1391.49,1225.63 1392.87,1225.63L1445.81,1225.63ZM1465.04,1195.99C1466.42,1195.99 1467.54,1197.11 1467.54,1198.49C1467.54,1199.87 1466.42,1200.99 1465.04,1200.99L1412.1,1200.99C1410.72,1200.99 1409.6,1199.87 1409.6,1198.49C1409.6,1197.11 1410.72,1195.99 1412.1,1195.99L1465.04,1195.99ZM1445.81,1166.34C1447.19,1166.34 1448.31,1167.46 1448.31,1168.84C1448.31,1170.22 1447.19,1171.34 1445.81,1171.34L1392.87,1171.34C1391.49,1171.34 1390.37,1170.22 1390.37,1168.84C1390.37,1167.46 1391.49,1166.34 1392.87,1166.34L1445.81,1166.34ZM1465.04,1136.69C1466.42,1136.69 1467.54,1137.82 1467.54,1139.19C1467.54,1140.58 1466.42,1141.69 1465.04,1141.69L1412.1,1141.69C1410.72,1141.69 1409.6,1140.58 1409.6,1139.19C1409.6,1137.82 1410.72,1136.69 1412.1,1136.69L1465.04,1136.69ZM1445.81,1107.05C1447.19,1107.05 1448.31,1108.17 1448.31,1109.55C1448.31,1110.93 1447.19,1112.05 1445.81,1112.05L1392.87,1112.05C1391.49,1112.05 1390.37,1110.93 1390.37,1109.55C1390.37,1108.17 1391.49,1107.05 1392.87,1107.05L1445.81,1107.05ZM1465.04,1077.4C1466.42,1077.4 1467.54,1078.53 1467.54,1079.9C1467.54,1081.29 1466.42,1082.4 1465.04,1082.4L1412.1,1082.4C1410.72,1082.4 1409.6,1081.29 1409.6,1079.9C1409.6,1078.53 1410.72,1077.4 1412.1,1077.4L1465.04,1077.4Z" style="fill:rgb(36,36,36);"/>
                    </g>
                </g>
            </g>
            <g transform="matrix(0.21715,0.596616,-0.674577,0.245526,233.177,36.3327)">
                <path d="M124.977,124.199C126.754,124.199 128.197,125.642 128.197,127.419L128.197,132.199L137.076,132.199C138.577,132.199 139.796,133.829 139.796,135.837L139.796,176.124C139.796,178.131 138.577,179.761 137.076,179.761L128.197,179.761L128.197,184.542C128.197,186.319 126.754,187.761 124.977,187.761L99.22,187.761C97.443,187.761 96,186.319 96,184.542L96,127.419C96,125.642 97.443,124.199 99.22,124.199L124.977,124.199ZM128.197,173.761L131.076,173.761C132.577,173.761 133.796,172.543 133.796,171.042L133.796,140.919C133.796,139.418 132.577,138.199 131.076,138.199L128.197,138.199L128.197,173.761Z" style="fill:rgb(77,77,77);"/>
            </g>
            <g transform="matrix(0.494524,0,0,0.494524,-438.528,-445.97)">
                <path d="M1531.84,1408.5C1543.62,1433.54 1559.33,1457.19 1579.33,1438.06C1579.33,1438.06 1579.33,1438.06 1579.33,1438.06C1573.82,1450.7 1563.8,1457.95 1551.03,1457.95C1536.32,1457.95 1496.49,1457.95 1481.12,1457.95C1466.41,1457.95 1453.27,1448.74 1448.23,1434.92L1392.65,1282.21C1380.87,1257.16 1364.78,1233.51 1344.78,1252.64C1344.78,1252.64 1344.78,1252.64 1344.78,1252.64C1349.26,1240.68 1360.69,1232.75 1373.46,1232.75L1443.37,1232.75L1443.71,1232.76C1446.87,1232.8 1450.01,1233.24 1453.05,1234.12C1460.38,1236.23 1466.92,1240.76 1471.46,1246.88C1473.49,1249.6 1475.08,1252.61 1476.26,1255.78L1531.84,1408.5Z" style="fill:white;"/>
                <clipPath id="_clip2">
                    <path d="M1531.84,1408.5C1543.62,1433.54 1559.33,1457.19 1579.33,1438.06C1579.33,1438.06 1579.33,1438.06 1579.33,1438.06C1573.82,1450.7 1563.8,1457.95 1551.03,1457.95C1536.32,1457.95 1496.49,1457.95 1481.12,1457.95C1466.41,1457.95 1453.27,1448.74 1448.23,1434.92L1392.65,1282.21C1380.87,1257.16 1364.78,1233.51 1344.78,1252.64C1344.78,1252.64 1344.78,1252.64 1344.78,1252.64C1349.26,1240.68 1360.69,1232.75 1373.46,1232.75L1443.37,1232.75L1443.71,1232.76C1446.87,1232.8 1450.01,1233.24 1453.05,1234.12C1460.38,1236.23 1466.92,1240.76 1471.46,1246.88C1473.49,1249.6 1475.08,1252.61 1476.26,1255.78L1531.84,1408.5Z"/>
                </clipPath>
                <g clip-path="url(#_clip2)">
                    <g transform="matrix(1.03433,-0.375867,0.34154,0.939867,-497.675,632.893)">
                        <path d="M1445.81,1462.73C1447.19,1462.73 1448.31,1463.85 1448.31,1465.23C1448.31,1466.61 1447.19,1467.73 1445.81,1467.73L1392.87,1467.73C1391.49,1467.73 1390.37,1466.61 1390.37,1465.23C1390.37,1463.85 1391.49,1462.73 1392.87,1462.73L1445.81,1462.73ZM1465.04,1433.09C1466.42,1433.09 1467.54,1434.21 1467.54,1435.59C1467.54,1436.97 1466.42,1438.09 1465.04,1438.09L1412.1,1438.09C1410.72,1438.09 1409.6,1436.97 1409.6,1435.59C1409.6,1434.21 1410.72,1433.09 1412.1,1433.09L1465.04,1433.09ZM1445.81,1403.44C1447.19,1403.44 1448.31,1404.56 1448.31,1405.94C1448.31,1407.32 1447.19,1408.44 1445.81,1408.44L1392.87,1408.44C1391.49,1408.44 1390.37,1407.32 1390.37,1405.94C1390.37,1404.56 1391.49,1403.44 1392.87,1403.44L1445.81,1403.44ZM1465.04,1373.8C1466.42,1373.8 1467.54,1374.92 1467.54,1376.3C1467.54,1377.68 1466.42,1378.8 1465.04,1378.8L1412.1,1378.8C1410.72,1378.8 1409.6,1377.68 1409.6,1376.3C1409.6,1374.92 1410.72,1373.8 1412.1,1373.8L1465.04,1373.8ZM1445.81,1344.15C1447.19,1344.15 1448.31,1345.27 1448.31,1346.65C1448.31,1348.03 1447.19,1349.15 1445.81,1349.15L1392.87,1349.15C1391.49,1349.15 1390.37,1348.03 1390.37,1346.65C1390.37,1345.27 1391.49,1344.15 1392.87,1344.15L1445.81,1344.15ZM1465.04,1314.51C1466.42,1314.51 1467.54,1315.63 1467.54,1317.01C1467.54,1318.39 1466.42,1319.51 1465.04,1319.51L1412.1,1319.51C1410.72,1319.51 1409.6,1318.39 1409.6,1317.01C1409.6,1315.63 1410.72,1314.51 1412.1,1314.51L1465.04,1314.51ZM1445.81,1284.86C1447.19,1284.86 1448.31,1285.98 1448.31,1287.36L1448.31,1287.39L1448.31,1287.42C1448.31,1288.8 1447.19,1289.92 1445.81,1289.92L1392.87,1289.92C1391.49,1289.92 1390.37,1288.8 1390.37,1287.42L1390.37,1287.39L1390.37,1287.36C1390.37,1285.98 1391.49,1284.86 1392.87,1284.86L1445.81,1284.86ZM1465.04,1255.22C1466.42,1255.22 1467.54,1256.34 1467.54,1257.72L1467.54,1257.75L1467.54,1257.78C1467.54,1259.16 1466.42,1260.28 1465.04,1260.28L1412.1,1260.28C1410.72,1260.28 1409.6,1259.16 1409.6,1257.78L1409.6,1257.75L1409.6,1257.72C1409.6,1256.34 1410.72,1255.22 1412.1,1255.22L1465.04,1255.22ZM1445.81,1225.63C1447.19,1225.63 1448.31,1226.75 1448.31,1228.13C1448.31,1229.51 1447.19,1230.63 1445.81,1230.63L1392.87,1230.63C1391.49,1230.63 1390.37,1229.51 1390.37,1228.13C1390.37,1226.75 1391.49,1225.63 1392.87,1225.63L1445.81,1225.63ZM1465.04,1195.99C1466.42,1195.99 1467.54,1197.11 1467.54,1198.49C1467.54,1199.87 1466.42,1200.99 1465.04,1200.99L1412.1,1200.99C1410.72,1200.99 1409.6,1199.87 1409.6,1198.49C1409.6,1197.11 1410.72,1195.99 1412.1,1195.99L1465.04,1195.99ZM1445.81,1166.34C1447.19,1166.34 1448.31,1167.46 1448.31,1168.84C1448.31,1170.22 1447.19,1171.34 1445.81,1171.34L1392.87,1171.34C1391.49,1171.34 1390.37,1170.22 1390.37,1168.84C1390.37,1167.46 1391.49,1166.34 1392.87,1166.34L1445.81,1166.34ZM1465.04,1136.69C1466.42,1136.69 1467.54,1137.82 1467.54,1139.19C1467.54,1140.58 1466.42,1141.69 1465.04,1141.69L1412.1,1141.69C1410.72,1141.69 1409.6,1140.58 1409.6,1139.19C1409.6,1137.82 1410.72,1136.69 1412.1,1136.69L1465.04,1136.69ZM1445.81,1107.05C1447.19,1107.05 1448.31,1108.17 1448.31,1109.55C1448.31,1110.93 1447.19,1112.05 1445.81,1112.05L1392.87,1112.05C1391.49,1112.05 1390.37,1110.93 1390.37,1109.55C1390.37,1108.17 1391.49,1107.05 1392.87,1107.05L1445.81,1107.05ZM1465.04,1077.4C1466.42,1077.4 1467.54,1078.53 1467.54,1079.9C1467.54,1081.29 1466.42,1082.4 1465.04,1082.4L1412.1,1082.4C1410.72,1082.4 1409.6,1081.29 1409.6,1079.9C1409.6,1078.53 1410.72,1077.4 1412.1,1077.4L1465.04,1077.4Z" style="fill:rgb(36,36,36);"/>
                    </g>
                </g>
            </g>
        </g>
    </g>
</svg>
